HIERARCHY
ROOT hip
{
  OFFSET 0 0 0
  CHANNELS 6 Xposition Yposition Zposition Zrotation Yrotation Xrotation
  JOINT abdomen
  {
    OFFSET 0 20.6881 -0.73152
    CHANNELS 3 Zrotation Xrotation Yrotation
    JOINT chest
    {
      OFFSET 0 11.7043 -0.48768
      CHANNELS 3 Zrotation Xrotation Yrotation
      JOINT neck
      {
        OFFSET 0 22.1894 -2.19456
        CHANNELS 3 Zrotation Xrotation Yrotation
        JOINT head
        {
          OFFSET -0.24384 7.07133 1.2192
          CHANNELS 3 Zrotation Xrotation Yrotation
          JOINT leftEye
          {
            OFFSET 4.14528 8.04674 8.04672
            CHANNELS 3 Zrotation Xrotation Yrotation
            End Site
            {
              OFFSET 1 0 0
            }
          }
          JOINT rightEye
          {
            OFFSET -3.6576 8.04674 8.04672
            CHANNELS 3 Zrotation Xrotation Yrotation
            End Site
            {
              OFFSET 1 0 0
            }
          }
        }
      }
      JOINT rCollar
      {
        OFFSET -2.68224 19.2634 -4.8768
        CHANNELS 3 Zrotation Xrotation Yrotation
        JOINT rShldr
        {
          OFFSET -8.77824 -1.95073 1.46304
          CHANNELS 3 Zrotation Xrotation Yrotation
          JOINT rForeArm
          {
            OFFSET -28.1742 -1.7115 0.48768
            CHANNELS 3 Zrotation Xrotation Yrotation
            JOINT rHand
            {
              OFFSET -22.5879 0.773209 7.07136
              CHANNELS 3 Zrotation Xrotation Yrotation
              JOINT rThumb1
              {
                OFFSET -1.2192 -0.487915 3.41376
                CHANNELS 3 Zrotation Xrotation Yrotation
                JOINT rThumb2
                {
                  OFFSET -3.37035 -0.52449 3.41376
                  CHANNELS 3 Zrotation Xrotation Yrotation
                  End Site
                  {
                    OFFSET -1.78271 -1.18214 1.43049
                  }
                }
              }
              JOINT rIndex1
              {
                OFFSET -7.75947 0.938293 5.60832
                CHANNELS 3 Zrotation Xrotation Yrotation
                JOINT rIndex2
                {
                  OFFSET -2.54057 -0.884171 1.56538
                  CHANNELS 3 Zrotation Xrotation Yrotation
                  End Site
                  {
                    OFFSET -1.62519 -0.234802 1.16502
                  }
                }
              }
              JOINT rMid1
              {
                OFFSET -8.24714 1.18213 3.41376
                CHANNELS 3 Zrotation Xrotation Yrotation
                JOINT rMid2
                {
                  OFFSET -3.10165 -0.590103 1.0647
                  CHANNELS 3 Zrotation Xrotation Yrotation
                  End Site
                  {
                    OFFSET -2.48547 -0.328903 0.83742
                  }
                }
              }
              JOINT rRing1
              {
                OFFSET -8.82822 0.546677 1.51678
                CHANNELS 3 Zrotation Xrotation Yrotation
                JOINT rRing2
                {
                  OFFSET -2.60934 -0.819778 -0.0198488
                  CHANNELS 3 Zrotation Xrotation Yrotation
                  End Site
                  {
                    OFFSET -2.33842 -0.294052 0.168128
                  }
                }
              }
              JOINT rPinky1
              {
                OFFSET -8.27202 -0.0477905 -0.4584
                CHANNELS 3 Zrotation Xrotation Yrotation
                JOINT rPinky2
                {
                  OFFSET -1.82734 -0.647385 -0.700984
                  CHANNELS 3 Zrotation Xrotation Yrotation
                  End Site
                  {
                    OFFSET -1.69225 -0.51767 -0.607171
                  }
                }
              }
            }
          }
        }
      }
      JOINT lCollar
      {
        OFFSET 2.68224 19.2634 -4.8768
        CHANNELS 3 Zrotation Xrotation Yrotation
        JOINT lShldr
        {
          OFFSET 8.77824 -1.95073 1.46304
          CHANNELS 3 Zrotation Xrotation Yrotation
          JOINT lForeArm
          {
            OFFSET 28.1742 -1.7115 0.48768
            CHANNELS 3 Zrotation Xrotation Yrotation
            JOINT lHand
            {
              OFFSET 22.5879 0.773209 7.07136
              CHANNELS 3 Zrotation Xrotation Yrotation
              JOINT lThumb1
              {
                OFFSET 1.2192 -0.487915 3.41376
                CHANNELS 3 Zrotation Xrotation Yrotation
                JOINT lThumb2
                {
                  OFFSET 3.37035 -0.52449 3.41376
                  CHANNELS 3 Zrotation Xrotation Yrotation
                  End Site
                  {
                    OFFSET 1.78271 -1.18214 1.43049
                  }
                }
              }
              JOINT lIndex1
              {
                OFFSET 7.75947 0.938293 5.60832
                CHANNELS 3 Zrotation Xrotation Yrotation
                JOINT lIndex2
                {
                  OFFSET 2.54057 -0.884171 1.56538
                  CHANNELS 3 Zrotation Xrotation Yrotation
                  End Site
                  {
                    OFFSET 1.62519 -0.234802 1.16502
                  }
                }
              }
              JOINT lMid1
              {
                OFFSET 8.24714 1.18213 3.41376
                CHANNELS 3 Zrotation Xrotation Yrotation
                JOINT lMid2
                {
                  OFFSET 3.10165 -0.590103 1.0647
                  CHANNELS 3 Zrotation Xrotation Yrotation
                  End Site
                  {
                    OFFSET 2.48547 -0.328903 0.83742
                  }
                }
              }
              JOINT lRing1
              {
                OFFSET 8.82822 0.546677 1.51678
                CHANNELS 3 Zrotation Xrotation Yrotation
                JOINT lRing2
                {
                  OFFSET 2.60934 -0.819778 -0.0198488
                  CHANNELS 3 Zrotation Xrotation Yrotation
                  End Site
                  {
                    OFFSET 2.33842 -0.294052 0.168128
                  }
                }
              }
              JOINT lPinky1
              {
                OFFSET 8.27202 -0.0477905 -0.4584
                CHANNELS 3 Zrotation Xrotation Yrotation
                JOINT lPinky2
                {
                  OFFSET 1.82734 -0.647385 -0.700984
                  CHANNELS 3 Zrotation Xrotation Yrotation
                  End Site
                  {
                    OFFSET 1.69225 -0.51767 -0.607171
                  }
                }
              }
            }
          }
        }
      }
    }
  }
  JOINT rButtock
  {
    OFFSET -8.77824 4.35084 1.2192
    CHANNELS 3 Zrotation Xrotation Yrotation
    JOINT rThigh
    {
      OFFSET 0 -1.70687 -2.19456
      CHANNELS 3 Zrotation Xrotation Yrotation
      JOINT rShin
      {
        OFFSET 0 -36.8199 0.73152
        CHANNELS 3 Zrotation Xrotation Yrotation
        JOINT rFoot
        {
          OFFSET 0.73152 -45.1104 -5.12064
          CHANNELS 3 Zrotation Xrotation Yrotation
          End Site
          {
            OFFSET -1.1221 -3.69964 12.103
          }
        }
      }
    }
  }
  JOINT lButtock
  {
    OFFSET 8.77824 4.35084 1.2192
    CHANNELS 3 Zrotation Xrotation Yrotation
    JOINT lThigh
    {
      OFFSET 0 -1.70687 -2.19456
      CHANNELS 3 Zrotation Xrotation Yrotation
      JOINT lShin
      {
        OFFSET 0 -36.8199 0.73152
        CHANNELS 3 Zrotation Xrotation Yrotation
        JOINT lFoot
        {
          OFFSET -0.73152 -45.1104 -5.12064
          CHANNELS 3 Zrotation Xrotation Yrotation
          End Site
          {
            OFFSET 1.1221 -3.69964 12.103
          }
        }
      }
    }
  }
}
MOTION
Frames:	4
Frame Time:	0.03333
-1.7040000296644848 67.89460068973048 67.50800027833819 137.00299072265625 -56.047401428222656 -128.68099975585938 -8.403128623962402 31.05499267578125 13.518099784851074 -8.076549530029297 -10.01409912109375 2.1072700023651123 2.8297202587127686 12.437600135803223 12.242100715637207 -10.556099891662598 -13.534199714660645 22.206298828125 -0.0 0.0 -0.0 -0.0 0.0 -0.0 6.07560009246999e-13 4.446420228537695e-12 -8.240620100359586e-13 16.28299903869629 61.01639938354492 34.20029830932617 -28.377696990966797 -37.4076042175293 79.38999938964844 -0.0789370983839035 7.989660739898682 1.1302798986434937 -7.446300465119293e-09 1.7212899550145266e-08 7.919659594790573e-09 -1.2818099470734978e-08 2.972999979533597e-08 1.3737499138244402e-08 -7.4463097909927e-09 1.7212899550145266e-08 7.919649824827957e-09 7.730909824371338 5.474879741668701 0.4173140823841095 -7.446300465119293e-09 1.7212899550145266e-08 7.919659594790573e-09 2.9055399894714355 0.9651829600334167 0.10290199518203735 -7.446289362889047e-09 1.7212899550145266e-08 7.919659594790573e-09 10.27859878540039 0.73180091381073 0.025912316516041756 -7.4463097909927e-09 1.7212899550145266e-08 7.919659594790573e-09 2.221669912338257 -0.733487069606781 -0.208919957280159 6.073519508500991e-13 4.446409820196839e-12 -8.243600030030662e-13 -59.96749496459961 0.6570348143577576 4.646679401397705 28.362201690673828 -37.63090133666992 -79.7721939086914 1.4881800413131714 -32.40610122680664 5.118210315704346 -5.048879647695514e-10 -4.345889870194242e-09 -7.03967950599349e-09 -7.161049531134722e-10 -7.62176988189367e-09 -1.2142300498396708e-08 -5.048970130872021e-10 -4.345889870194242e-09 -7.03967950599349e-09 -7.730909824371338 5.474879741668701 -0.4173140823841095 -5.048909623717179e-10 -4.345889870194242e-09 -7.03967950599349e-09 -2.9055399894714355 0.9651829600334167 -0.10290199518203735 -5.048919615724401e-10 -4.345889870194242e-09 -7.03967950599349e-09 -10.27859878540039 0.73180091381073 -0.025912316516041756 -5.048919615724401e-10 -4.345900084246068e-09 -7.039690164134527e-09 -2.221669912338257 -0.733487069606781 0.208919957280159 -2.0321699480147914e-16 0.0 -3.8825099822884138e-19 -47.064598083496094 -48.96890640258789 -29.114500045776367 -0.8129069805145264 58.06089401245117 1.9381598234176636 0.9593310952186584 -13.372200012207031 -1.6502602100372314 2.0321699480147914e-16 0.0 3.8825099822884138e-19 71.43609619140625 -45.4595947265625 68.67990112304688 173.29598999023438 82.01322937011719 -176.1859893798828 -4.330990314483643 -7.591500282287598 -9.476489067077637
-2.3218000316022467 66.63880210893194 67.98100026987167 139.83799743652344 -56.48139953613281 -131.75599670410156 -7.884189605712891 30.430503845214844 12.991497993469238 -8.424829483032227 -9.717430114746094 2.0248095989227295 2.7436602115631104 12.626099586486816 12.44789981842041 -10.070098876953125 -13.46920108795166 22.642799377441406 -0.0 0.0 -0.0 -0.0 0.0 -0.0 5.2533298484968086e-14 5.590789875324631e-13 -8.619489941675412e-14 19.52939796447754 62.42628860473633 31.00910186767578 -28.365299224853516 -37.57279968261719 79.6781997680664 -0.06270869821310043 7.10584020614624 1.0039198398590088 -7.890150199862944e-10 3.15320991539636e-09 1.799839832727912e-09 -1.3527700071236382e-09 5.440009775981025e-09 3.117520019912945e-09 -7.890160191870166e-10 3.15320991539636e-09 1.7998299517429928e-09 7.730909824371338 5.474879741668701 0.4173140823841095 -7.890160191870166e-10 3.15320991539636e-09 1.799839832727912e-09 2.9055399894714355 0.9651829600334167 0.10290199518203735 -7.890089692708102e-10 3.1531999233891383e-09 1.799839832727912e-09 10.27859878540039 0.73180091381073 0.025912316516041756 -7.890210151906274e-10 3.1531999233891383e-09 1.799849935757436e-09 2.221669912338257 -0.733487069606781 -0.208919957280159 5.240360080008451e-14 5.590809933064822e-13 -8.647129643183857e-14 -59.864501953125 2.9449198246002197 3.211639642715454 28.293498992919922 -38.378997802734375 -81.07659912109375 1.3476999998092651 -31.042699813842773 4.8519697189331055 -1.6667298652350837e-09 -1.1328200599791671e-09 -2.7076600961351005e-09 -2.8175999311486066e-09 -2.02652983283258e-09 -4.703669453931525e-09 -1.6667399682646078e-09 -1.1328200599791671e-09 -2.7076600961351005e-09 -7.730909824371338 5.474879741668701 -0.4173140823841095 -1.6667399682646078e-09 -1.1328200599791671e-09 -2.7076600961351005e-09 -2.9055399894714355 0.9651829600334167 -0.10290199518203735 -1.6667399682646078e-09 -1.1328200599791671e-09 -2.7076600961351005e-09 -10.27859878540039 0.73180091381073 -0.025912316516041756 -1.6667298652350837e-09 -1.1328200599791671e-09 -2.7076600961351005e-09 -2.221669912338257 -0.733487069606781 0.208919957280159 -2.0321699480147914e-16 0.0 -3.8825099822884138e-19 -47.251304626464844 -49.90989685058594 -29.71209716796875 -0.9572380781173706 60.467899322509766 2.0516700744628906 1.120919942855835 -14.332402229309082 -0.8321049213409424 2.0321699480147914e-16 0.0 3.8825099822884138e-19 62.923500061035156 -46.39079284667969 60.00730514526367 156.09799194335938 87.97976684570312 -158.97499084472656 -4.298119068145752 -6.114430904388428 -11.338798522949219
-3.0074000130578464 65.46030077897042 68.4300002573222 142.6699981689453 -56.3424072265625 -135.10499572753906 -7.738230228424072 29.830398559570312 12.700799942016602 -8.721179962158203 -9.500929832458496 1.9725197553634644 2.6336097717285156 12.788900375366211 12.687600135803223 -9.572039604187012 -13.394001960754395 23.14900016784668 -0.0 0.0 -0.0 -0.0 0.0 -0.0 -6.360750142743454e-13 -3.48193999674673e-12 6.286070297102653e-13 23.201297760009766 63.63200759887695 27.40780258178711 -28.35860252380371 -37.6786003112793 79.85409545898438 -0.056776899844408035 6.783810615539551 0.9579280018806458 6.431000176831958e-09 -1.1910300301565258e-08 -4.9421098324842205e-09 1.1081199069451486e-08 -2.0583701854093306e-08 -8.582030197601398e-09 6.431000176831958e-09 -1.1910300301565258e-08 -4.942130260587874e-09 7.730909824371338 5.474879741668701 0.4173140823841095 6.431000176831958e-09 -1.1910300301565258e-08 -4.9421098324842205e-09 2.9055399894714355 0.9651829600334167 0.10290199518203735 6.431000176831958e-09 -1.1910300301565258e-08 -4.9421098324842205e-09 10.27859878540039 0.73180091381073 0.025912316516041756 6.4309899627801315e-09 -1.1910300301565258e-08 -4.942100062521604e-09 2.221669912338257 -0.733487069606781 -0.208919957280159 -6.361389279924134e-13 -3.48193999674673e-12 6.283579884712454e-13 -59.85029602050781 5.258849620819092 1.8272202014923096 28.218202590942383 -39.04849624633789 -82.23309326171875 1.2104700803756714 -29.599695205688477 4.579220771789551 -2.123019982036567e-09 2.1148500728429553e-09 2.7430098192837704e-09 -3.725349806416034e-09 3.6555700688722936e-09 4.680199783280159e-09 -2.1230299740437886e-09 2.1148398587911288e-09 2.743020033335597e-09 -7.730909824371338 5.474879741668701 -0.4173140823841095 -2.123019982036567e-09 2.1148398587911288e-09 2.7430098192837704e-09 -2.9055399894714355 0.9651829600334167 -0.10290199518203735 -2.1230299740437886e-09 2.1148500728429553e-09 2.743020033335597e-09 -10.27859878540039 0.73180091381073 -0.025912316516041756 -2.1230097679847404e-09 2.1148500728429553e-09 2.743020033335597e-09 -2.221669912338257 -0.733487069606781 0.208919957280159 -2.0321699480147914e-16 0.0 -3.8825099822884138e-19 -47.57999801635742 -50.811302185058594 -30.19659996032715 -1.1200801134109497 62.752899169921875 2.1810500621795654 1.349579930305481 -15.226299285888672 0.07158821821212769 2.0321699480147914e-16 0.0 3.8825099822884138e-19 54.39090347290039 -46.04780197143555 51.20719909667969 9.32627010345459 85.62533569335938 -12.194499969482422 -4.038910388946533 -4.606429576873779 -12.5108003616333
-3.7129000174645426 64.31299975313753 69.0460002376094 145.39500427246094 -55.785400390625 -138.6230010986328 -8.276930809020996 29.44999885559082 12.775300979614258 -8.892679214477539 -9.362568855285645 1.9561400413513184 2.453199863433838 13.008199691772461 13.003999710083008 -9.11216926574707 -13.529199600219727 23.798500061035156 -0.0 0.0 -0.0 -0.0 0.0 -0.0 -3.475319804071425e-13 -2.893700036532554e-12 5.093019647510466e-13 27.265499114990234 64.60030364990234 23.26700210571289 -28.344202041625977 -37.86589431762695 80.1742935180664 -0.07795339077711105 8.060091972351074 1.140029788017273 6.204869951176306e-09 -1.1616899442401518e-08 -6.159210030887152e-09 1.068459987152437e-08 -2.006800059461966e-08 -1.068830002282084e-08 6.204869951176306e-09 -1.1616899442401518e-08 -6.159219800849769e-09 7.730909824371338 5.474879741668701 0.4173140823841095 6.204869951176306e-09 -1.1616899442401518e-08 -6.159210030887152e-09 2.9055399894714355 0.9651829600334167 0.10290199518203735 6.204869951176306e-09 -1.1616899442401518e-08 -6.159219800849769e-09 10.27859878540039 0.73180091381073 0.025912316516041756 6.20485929303527e-09 -1.1616899442401518e-08 -6.159210030887152e-09 2.221669912338257 -0.733487069606781 -0.208919957280159 -3.4761001585850715e-13 -2.8936698957121587e-12 5.090629523821222e-13 -59.98899841308594 7.6150803565979 0.5153891444206238 28.124496459960938 -39.6947021484375 -83.37879180908203 1.079129934310913 -28.130598068237305 4.308730125427246 -5.19585985347959e-10 1.8498300669023138e-09 4.3867900423322226e-09 -9.801118805441433e-10 3.212739851932156e-09 7.548160319004182e-09 -5.195889829501255e-10 1.8498300669023138e-09 4.3867900423322226e-09 -7.730909824371338 5.474879741668701 -0.4173140823841095 -5.195889829501255e-10 1.8498300669023138e-09 4.3867900423322226e-09 -2.9055399894714355 0.9651829600334167 -0.10290199518203735 -5.195939789537363e-10 1.8498300669023138e-09 4.3867900423322226e-09 -10.27859878540039 0.73180091381073 -0.025912316516041756 -5.195829877457925e-10 1.8498300669023138e-09 4.3867900423322226e-09 -2.221669912338257 -0.733487069606781 0.208919957280159 -2.0321699480147914e-16 0.0 -3.8825099822884138e-19 -48.11179733276367 -51.60779571533203 -30.39000129699707 -1.3025999069213867 64.89099884033203 2.3242897987365723 1.658869981765747 -16.046899795532227 1.1171300411224365 2.0321699480147914e-16 0.0 3.8825099822884138e-19 45.969295501708984 -44.3588981628418 42.635498046875 3.28236985206604 79.514404296875 -6.160920143127441 -3.4740800857543945 -2.9597702026367188 -11.970599174499512
